<?xml version="1.0" encoding="UTF-8"?>
<svg xmlns="http://www.w3.org/2000/svg" viewBox="0 0 358.835 111.543">
  <defs>
    <style>
      .cls-1 {
        fill: none;
      }

      .cls-2 {
        fill: #fff;
      }
    </style>
  </defs>
  <g id="_3._Exclusion_zone" data-name="3. Exclusion zone">
    <g>
      <rect class="cls-1" x="32.774" y=".074" width="8.14" height="40.926"/>
      <rect class="cls-1" x="-.011" y="32.859" width="40.926" height="8.14"/>
    </g>
    <g>
      <rect class="cls-1" x=".007" y="70.685" width="40.926" height="8.14"/>
      <rect class="cls-1" x="32.792" y="70.685" width="8.14" height="40.926"/>
    </g>
    <g>
      <rect class="cls-1" x="317.91" y="70.685" width="8.14" height="40.926"/>
      <rect class="cls-1" x="317.91" y="70.685" width="40.926" height="8.14"/>
    </g>
    <g>
      <rect class="cls-1" x="317.91" y="32.859" width="40.926" height="8.14"/>
      <rect class="cls-1" x="317.91" y=".074" width="8.14" height="40.926"/>
    </g>
  </g>
  <g id="_1._Artwork" data-name="1. Artwork">
    <g>
      <path class="cls-2" d="M317.741,51.739c-.113.53-.355,1.024-.726,1.481-.371.457-.908.845-1.611,1.163-.703.318-1.644.477-2.824.477-.504,0-1.018-.063-1.541-.189-.524-.126-1.001-.322-1.432-.587-.431-.265-.789-.607-1.074-1.024-.285-.417-.447-.918-.487-1.501h2.804c.132.53.391.898.775,1.104.384.206.829.308,1.333.308.795,0,1.375-.238,1.74-.716.365-.477.54-1.08.527-1.809v-1.353h-.039c-.305.544-.739.945-1.303,1.203-.564.258-1.157.388-1.78.388-.769,0-1.432-.136-1.988-.408-.557-.272-1.014-.643-1.373-1.114-.358-.47-.62-1.02-.785-1.65-.166-.629-.248-1.295-.248-1.999,0-.663.096-1.303.288-1.919.192-.617.474-1.16.845-1.631.371-.471.832-.845,1.382-1.124.55-.278,1.183-.418,1.899-.418.677,0,1.269.127,1.78.378.51.252.938.676,1.283,1.273h.039v-1.372h2.685v9.625c0,.411-.057.882-.169,1.412M313.873,48.318c.304-.159.557-.371.755-.637.199-.265.348-.567.448-.904.099-.338.149-.693.149-1.064,0-.424-.039-.825-.119-1.203-.079-.378-.212-.712-.398-1.004-.186-.291-.431-.523-.736-.696-.305-.172-.69-.258-1.154-.258-.398,0-.739.079-1.024.239-.285.159-.524.374-.716.646-.192.272-.332.584-.418.935-.087.351-.129.719-.129,1.104,0,.371.037.739.109,1.103.073.365.199.693.378.985.179.292.414.53.706.716.292.186.657.279,1.094.279.398,0,.749-.08,1.054-.239M299.416,40.702v1.432h.059c.358-.597.822-1.03,1.392-1.303.57-.272,1.153-.408,1.75-.408.755,0,1.375.103,1.859.308.484.206.865.491,1.143.855.278.364.474.809.587,1.332.113.524.169,1.104.169,1.74v6.324h-2.824v-5.807c0-.848-.133-1.481-.398-1.899-.265-.418-.735-.627-1.412-.627-.769,0-1.326.229-1.67.686-.345.458-.517,1.21-.517,2.257v5.389h-2.824v-10.281h2.685ZM294.953,50.983h-2.824v-10.281h2.824v10.281ZM292.129,36.784h2.824v2.327h-2.824v-2.327ZM291.032,40.702v1.889h-2.068v5.091c0,.478.079.795.239.955.159.159.477.238.954.238.159,0,.312-.006.458-.02.146-.013.285-.033.417-.06v2.187c-.238.04-.504.066-.795.079-.292.013-.577.02-.855.02-.438,0-.852-.029-1.243-.089-.392-.059-.736-.176-1.034-.348-.298-.172-.534-.418-.706-.736-.172-.318-.258-.736-.258-1.253v-6.065h-1.71v-1.889h1.71v-3.082h2.824v3.082h2.068ZM280.954,50.983v-1.432h-.06c-.358.597-.822,1.027-1.392,1.293-.57.265-1.153.398-1.75.398-.755,0-1.375-.099-1.859-.298-.484-.199-.865-.481-1.144-.845-.278-.364-.474-.808-.587-1.332-.113-.524-.169-1.104-.169-1.74v-6.324h2.824v5.807c0,.849.133,1.481.398,1.899.265.418.736.627,1.412.627.769,0,1.325-.229,1.67-.686.345-.458.517-1.21.517-2.257v-5.389h2.824v10.281h-2.685ZM264.987,40.702v1.312h.039c.345-.557.782-.961,1.313-1.213.53-.252,1.114-.378,1.75-.378.808,0,1.504.153,2.088.458.583.305,1.067.709,1.452,1.213.384.504.669,1.09.855,1.76.186.669.279,1.369.279,2.098,0,.689-.093,1.352-.279,1.989-.186.636-.467,1.2-.845,1.69-.378.49-.849.882-1.412,1.173-.564.292-1.223.438-1.979.438-.637,0-1.223-.129-1.76-.388-.537-.259-.978-.64-1.323-1.144h-.04v4.872h-2.824v-13.88h2.685ZM268.656,48.855c.311-.186.563-.428.755-.726.192-.298.328-.647.408-1.044.079-.398.119-.802.119-1.213s-.043-.815-.129-1.213c-.086-.398-.228-.752-.427-1.064-.199-.312-.454-.564-.766-.756s-.693-.288-1.143-.288c-.464,0-.852.096-1.163.288-.312.192-.564.441-.756.746-.192.305-.328.656-.408,1.054-.079.398-.119.809-.119,1.233,0,.411.043.815.129,1.213.086.398.226.746.418,1.044.192.298.447.54.765.726.318.186.703.278,1.154.278.464,0,.852-.093,1.163-.278M247.48,40.702v1.392h.039c.371-.53.818-.942,1.343-1.233.523-.292,1.123-.438,1.8-.438.649,0,1.243.127,1.78.378.537.252.944.696,1.223,1.332.305-.451.719-.848,1.243-1.193.523-.344,1.143-.517,1.859-.517.543,0,1.047.067,1.511.199.464.133.862.345,1.193.637.331.292.59.673.775,1.144.186.471.278,1.037.278,1.7v6.881h-2.824v-5.826c0-.345-.013-.669-.04-.974-.027-.305-.099-.57-.219-.795-.119-.226-.295-.404-.527-.537-.232-.132-.547-.199-.945-.199s-.719.077-.964.229c-.245.152-.438.351-.577.597-.139.245-.232.524-.279.835-.047.312-.069.627-.069.945v5.727h-2.824v-5.767c0-.305-.007-.607-.02-.905-.013-.298-.07-.573-.169-.825-.099-.252-.265-.454-.497-.607-.232-.152-.573-.229-1.024-.229-.133,0-.308.03-.527.089-.219.06-.431.173-.637.338-.206.166-.381.404-.527.716-.146.312-.219.719-.219,1.223v5.966h-2.824v-10.281h2.665ZM233.194,43.615c.252-.669.609-1.239,1.074-1.71.464-.471,1.02-.835,1.67-1.094.649-.258,1.379-.388,2.188-.388s1.541.129,2.197.388c.656.259,1.216.624,1.68,1.094.464.471.822,1.04,1.074,1.71.252.67.378,1.415.378,2.237s-.127,1.564-.378,2.227c-.252.663-.61,1.23-1.074,1.7-.464.471-1.024.832-1.68,1.084s-1.389.378-2.197.378-1.538-.127-2.188-.378c-.65-.252-1.206-.613-1.67-1.084-.464-.471-.822-1.037-1.074-1.7-.252-.663-.378-1.405-.378-2.227s.126-1.568.378-2.237M235.759,47.055c.079.391.216.743.408,1.054.192.312.447.56.765.746.318.186.716.278,1.193.278s.878-.093,1.203-.278c.325-.186.583-.434.775-.746.192-.311.328-.663.408-1.054.079-.391.119-.792.119-1.203s-.04-.815-.119-1.213c-.079-.398-.216-.749-.408-1.054-.192-.305-.451-.554-.775-.746s-.726-.288-1.203-.288-.875.096-1.193.288c-.318.192-.574.441-.765.746-.192.305-.328.656-.408,1.054-.079.398-.119.802-.119,1.213s.04.812.119,1.203M227.106,42.551c-.451,0-.829.103-1.133.308-.305.206-.554.471-.746.795-.192.325-.328.683-.408,1.074-.079.391-.119.779-.119,1.163,0,.372.04.749.119,1.134.079.385.209.733.388,1.044.179.312.421.567.726.765.305.199.676.298,1.114.298.676,0,1.196-.189,1.561-.567.364-.378.593-.885.686-1.521h2.725c-.186,1.365-.716,2.406-1.591,3.122-.875.716-1.996,1.074-3.361,1.074-.769,0-1.475-.129-2.118-.388-.643-.259-1.19-.62-1.641-1.084-.451-.464-.802-1.017-1.054-1.66-.252-.643-.378-1.349-.378-2.118,0-.795.116-1.534.348-2.217.232-.683.573-1.273,1.024-1.77.451-.498,1.001-.885,1.65-1.164.649-.278,1.392-.418,2.227-.418.609,0,1.196.08,1.76.239.563.159,1.067.401,1.511.726.444.325.805.729,1.084,1.213.278.484.438,1.057.477,1.72h-2.764c-.186-1.18-.882-1.77-2.088-1.77M209.07,48.517c.424.411,1.034.617,1.83.617.569,0,1.06-.142,1.471-.428.411-.285.663-.587.755-.905h2.486c-.398,1.233-1.008,2.115-1.829,2.645-.823.53-1.817.795-2.983.795-.809,0-1.538-.129-2.188-.388-.65-.259-1.2-.627-1.651-1.104-.451-.478-.799-1.047-1.044-1.71-.245-.663-.368-1.392-.368-2.187,0-.769.126-1.485.378-2.148.252-.663.609-1.236,1.074-1.72.464-.484,1.017-.865,1.66-1.144.643-.278,1.355-.418,2.138-.418.875,0,1.637.169,2.287.507.649.338,1.183.793,1.6,1.363.418.57.719,1.22.905,1.949.186.729.252,1.491.199,2.287h-7.417c.04.915.272,1.578.696,1.989M212.262,43.108c-.338-.371-.852-.557-1.541-.557-.451,0-.825.077-1.123.229-.298.152-.537.341-.716.567-.179.226-.305.464-.378.716-.073.252-.117.477-.129.676h4.594c-.133-.716-.368-1.259-.706-1.631M199.04,50.983l-3.52-10.281h2.963l2.168,7.02h.04l2.168-7.02h2.804l-3.48,10.281h-3.142ZM194.71,50.983h-2.824v-10.281h2.824v10.281ZM191.886,36.784h2.824v2.327h-2.824v-2.327ZM190.789,40.702v1.889h-2.068v5.091c0,.478.079.795.239.955.159.159.477.238.954.238.159,0,.312-.006.458-.02.146-.013.284-.033.417-.06v2.187c-.238.04-.504.066-.795.079s-.577.02-.855.02c-.438,0-.852-.029-1.243-.089-.391-.059-.736-.176-1.034-.348-.298-.172-.534-.418-.706-.736-.173-.318-.258-.736-.258-1.253v-6.065h-1.71v-1.889h1.71v-3.082h2.824v3.082h2.068ZM180.573,47.005c0,.159-.017.372-.049.637-.033.265-.123.527-.269.785s-.371.481-.676.666c-.305.186-.736.278-1.293.278-.226,0-.444-.02-.656-.059-.212-.04-.398-.109-.557-.209-.159-.099-.285-.235-.378-.408-.093-.172-.139-.384-.139-.636,0-.265.046-.484.139-.657.093-.172.216-.314.368-.427.152-.113.332-.202.537-.269.206-.066.414-.119.627-.159.225-.04.451-.073.676-.099.225-.027.441-.06.646-.099.206-.04.398-.089.577-.149.179-.059.328-.142.447-.248v1.054ZM176.874,43.863c.053-.557.239-.955.557-1.193.318-.239.755-.358,1.313-.358.252,0,.487.017.706.05.219.033.411.099.577.199.166.099.298.239.398.418.099.179.149.421.149.726.013.292-.073.514-.258.667-.186.152-.438.268-.756.348-.318.079-.683.139-1.094.179-.411.04-.829.093-1.253.159-.424.067-.845.156-1.263.268-.418.113-.789.282-1.114.507-.325.226-.59.527-.795.905-.206.378-.308.858-.308,1.442,0,.53.089.988.268,1.373.179.384.428.703.746.954.318.252.689.438,1.114.557.424.119.881.179,1.372.179.636,0,1.259-.093,1.869-.279.609-.186,1.14-.51,1.591-.974.013.173.036.342.069.507.033.166.076.328.129.487h2.864c-.133-.212-.226-.53-.278-.954-.053-.424-.079-.868-.079-1.333v-5.349c0-.623-.139-1.124-.418-1.501-.278-.378-.637-.673-1.074-.885-.438-.212-.922-.354-1.452-.428-.53-.073-1.054-.109-1.571-.109-.57,0-1.137.057-1.7.169-.564.113-1.07.302-1.521.567-.451.265-.823.617-1.114,1.054-.292.438-.458.988-.497,1.651h2.824ZM166.305,48.517c.424.411,1.034.617,1.83.617.569,0,1.06-.142,1.471-.428.411-.285.663-.587.755-.905h2.486c-.398,1.233-1.008,2.115-1.829,2.645-.823.53-1.817.795-2.983.795-.809,0-1.538-.129-2.187-.388-.65-.259-1.2-.627-1.651-1.104-.451-.478-.799-1.047-1.044-1.71-.245-.663-.368-1.392-.368-2.187,0-.769.126-1.485.378-2.148.252-.663.609-1.236,1.074-1.72.464-.484,1.017-.865,1.66-1.144.643-.278,1.355-.418,2.138-.418.875,0,1.637.169,2.287.507.649.338,1.183.793,1.601,1.363.417.57.719,1.22.904,1.949.186.729.252,1.491.199,2.287h-7.417c.04.915.272,1.578.696,1.989M169.497,43.108c-.338-.371-.852-.557-1.541-.557-.451,0-.825.077-1.123.229-.298.152-.537.341-.716.567-.179.226-.305.464-.378.716-.073.252-.117.477-.129.676h4.594c-.133-.716-.368-1.259-.706-1.631M158.581,40.702v1.909h.04c.132-.318.311-.613.537-.885.226-.272.484-.503.776-.696.291-.192.603-.341.934-.447.332-.106.676-.159,1.034-.159.186,0,.391.033.617.099v2.625c-.133-.027-.292-.049-.478-.069-.186-.02-.364-.03-.537-.03-.517,0-.955.087-1.313.258-.358.173-.646.408-.865.706-.219.298-.375.647-.468,1.044-.093.398-.139.829-.139,1.293v4.633h-2.824v-10.281h2.685ZM149.802,42.551c-.451,0-.829.103-1.134.308-.305.206-.553.471-.745.795-.192.325-.328.683-.408,1.074-.079.391-.119.779-.119,1.163,0,.372.04.749.119,1.134.079.385.209.733.388,1.044.179.312.421.567.726.765.305.199.676.298,1.114.298.676,0,1.196-.189,1.561-.567.364-.378.593-.885.686-1.521h2.725c-.186,1.365-.716,2.406-1.591,3.122-.875.716-1.996,1.074-3.361,1.074-.769,0-1.475-.129-2.118-.388-.643-.259-1.19-.62-1.641-1.084-.451-.464-.802-1.017-1.054-1.66-.252-.643-.378-1.349-.378-2.118,0-.795.116-1.534.348-2.217.232-.683.573-1.273,1.024-1.77.451-.498,1.001-.885,1.65-1.164.649-.278,1.392-.418,2.227-.418.609,0,1.196.08,1.76.239.563.159,1.067.401,1.511.726.444.325.805.729,1.084,1.213.278.484.438,1.057.477,1.72h-2.764c-.186-1.18-.882-1.77-2.088-1.77"/>
      <path class="cls-2" d="M210.038,68.298c.424.411,1.034.617,1.83.617.569,0,1.06-.143,1.471-.428.411-.285.663-.587.755-.905h2.486c-.398,1.233-1.008,2.115-1.829,2.645-.823.53-1.817.795-2.983.795-.809,0-1.538-.129-2.187-.388-.65-.258-1.2-.626-1.651-1.104-.451-.477-.799-1.047-1.044-1.71-.245-.663-.368-1.392-.368-2.187,0-.769.126-1.485.378-2.148.252-.663.609-1.236,1.074-1.72.464-.483,1.017-.865,1.66-1.143.643-.278,1.355-.418,2.138-.418.875,0,1.637.169,2.287.507.649.338,1.183.793,1.601,1.362.417.57.719,1.22.904,1.949.186.729.252,1.491.199,2.287h-7.417c.04.915.272,1.578.696,1.989M213.229,62.888c-.338-.371-.852-.557-1.541-.557-.451,0-.825.076-1.123.228-.298.153-.537.342-.716.567s-.305.464-.378.716c-.073.252-.117.477-.129.676h4.594c-.133-.716-.368-1.259-.706-1.631M206.2,60.482v1.889h-2.068v5.091c0,.477.079.795.238.955.159.159.478.238.955.238.159,0,.311-.007.457-.02.146-.013.285-.033.418-.059v2.187c-.239.04-.504.066-.795.079-.292.013-.577.02-.855.02-.438,0-.852-.03-1.243-.089-.391-.06-.736-.176-1.034-.348-.298-.172-.534-.417-.706-.736-.173-.318-.259-.736-.259-1.253v-6.065h-1.71v-1.889h1.71v-3.082h2.824v3.082h2.068ZM196.121,70.763v-1.432h-.059c-.358.597-.822,1.028-1.392,1.293-.57.265-1.153.398-1.75.398-.756,0-1.376-.099-1.86-.298s-.865-.48-1.143-.845c-.278-.364-.474-.809-.587-1.333-.113-.523-.169-1.104-.169-1.74v-6.324h2.824v5.807c0,.849.132,1.481.398,1.899.265.418.736.627,1.412.627.769,0,1.325-.229,1.67-.687.344-.457.517-1.209.517-2.257v-5.389h2.824v10.281h-2.685ZM188.294,60.482v1.889h-2.068v5.091c0,.477.079.795.239.955.159.159.477.238.954.238.159,0,.312-.007.458-.02.146-.013.284-.033.417-.059v2.187c-.238.04-.504.066-.795.079s-.577.02-.855.02c-.438,0-.852-.03-1.243-.089-.391-.06-.736-.176-1.034-.348-.298-.172-.534-.417-.706-.736-.173-.318-.258-.736-.258-1.253v-6.065h-1.71v-1.889h1.71v-3.082h2.824v3.082h2.068ZM180.873,70.763h-2.824v-10.281h2.824v10.281ZM178.049,56.565h2.824v2.327h-2.824v-2.327ZM176.952,60.482v1.889h-2.068v5.091c0,.477.079.795.239.955.159.159.477.238.954.238.159,0,.311-.007.457-.02.146-.013.285-.033.418-.059v2.187c-.238.04-.504.066-.795.079-.292.013-.577.02-.855.02-.438,0-.852-.03-1.243-.089-.391-.06-.736-.176-1.034-.348-.298-.172-.534-.417-.706-.736-.173-.318-.259-.736-.259-1.253v-6.065h-1.71v-1.889h1.71v-3.082h2.824v3.082h2.068ZM163.384,68.208c.126.218.288.398.487.537.199.139.427.242.686.308.258.067.527.099.805.099.199,0,.408-.023.626-.069.219-.046.418-.119.597-.219.179-.099.328-.232.448-.398.119-.166.179-.374.179-.627,0-.424-.282-.742-.845-.954-.564-.212-1.349-.424-2.357-.637-.411-.092-.812-.202-1.203-.328-.391-.126-.739-.292-1.044-.497s-.55-.464-.736-.776c-.186-.311-.278-.692-.278-1.143,0-.663.129-1.206.388-1.631.259-.424.6-.759,1.024-1.004.424-.245.902-.417,1.432-.517.53-.099,1.074-.149,1.63-.149s1.097.053,1.621.159c.523.106.991.285,1.402.537.411.252.752.587,1.024,1.004.272.418.434.945.488,1.581h-2.685c-.04-.543-.245-.911-.617-1.104-.372-.192-.809-.288-1.313-.288-.159,0-.332.01-.517.03-.186.02-.355.063-.507.129-.152.066-.282.162-.388.288-.106.126-.159.295-.159.507,0,.252.092.457.278.616.186.159.428.288.726.388.298.099.639.189,1.024.269.384.079.776.166,1.174.258.411.093.812.206,1.203.338.391.133.739.308,1.044.527.305.219.55.491.736.815.185.325.278.726.278,1.203,0,.676-.136,1.243-.408,1.7-.272.457-.627.825-1.064,1.104-.438.278-.938.474-1.501.587-.564.113-1.137.169-1.72.169-.597,0-1.18-.059-1.75-.179-.57-.119-1.078-.318-1.521-.597-.444-.278-.809-.646-1.094-1.104-.285-.457-.441-1.03-.467-1.72h2.685c0,.305.062.567.189.785M152.339,60.482v1.432h.06c.358-.597.822-1.03,1.392-1.303.57-.272,1.153-.408,1.75-.408.756,0,1.375.103,1.86.308.483.206.865.49,1.143.855.278.365.474.809.587,1.333.113.524.169,1.104.169,1.74v6.324h-2.824v-5.807c0-.848-.133-1.481-.398-1.899-.265-.418-.736-.627-1.412-.627-.769,0-1.326.228-1.67.686-.345.457-.517,1.21-.517,2.257v5.389h-2.824v-10.281h2.685ZM147.877,70.763h-2.824v-10.281h2.824v10.281ZM145.053,56.565h2.824v2.327h-2.824v-2.327Z"/>
    </g>
    <g>
      <path class="cls-2" d="M68.714,70.651h-7.738v-4.126h-.172c-2.063,3.324-5.618,4.93-9.057,4.93-8.657,0-10.835-4.873-10.835-12.21v-18.229h8.141v16.739c0,4.872,1.432,7.28,5.216,7.28,4.413,0,6.306-2.465,6.306-8.484v-15.535h8.139v29.636Z"/>
      <path class="cls-2" d="M74.1,50.13c.459-7.624,7.281-9.917,13.93-9.917,5.903,0,13.012,1.318,13.012,8.426v15.42c0,2.694.287,5.388,1.032,6.591h-8.254c-.287-.917-.516-1.891-.573-2.866-2.58,2.695-6.364,3.669-9.975,3.669-5.617,0-10.089-2.809-10.089-8.885,0-6.707,5.045-8.312,10.089-8.999,4.987-.746,9.631-.573,9.631-3.898,0-3.496-2.408-4.012-5.274-4.012-3.096,0-5.102,1.261-5.389,4.471h-8.14ZM92.903,56.149c-1.376,1.204-4.243,1.262-6.765,1.72-2.522.516-4.815,1.375-4.815,4.356,0,3.038,2.351,3.783,4.987,3.783,6.363,0,6.593-5.045,6.593-6.821v-3.038Z"/>
      <path class="cls-2" d="M107.289,29.723h8.141v40.928h-8.141V29.723Z"/>
      <rect class="cls-2" x="125.316" y="41.001" width="9.879" height="9.879"/>
      <rect class="cls-2" x="125.316" y="60.758" width="9.879" height="9.879"/>
    </g>
  </g>
</svg>